<svg width="244" height="243" viewBox="0 0 244 243" fill="none" xmlns="http://www.w3.org/2000/svg">
<g clip-path="url(#clip0_21_103)">
<circle cx="122" cy="121.5" r="121.5" fill="#F8F8F8"/>
<mask id="mask0_21_103" style="mask-type:luminance" maskUnits="userSpaceOnUse" x="16" y="103" width="213" height="27">
<path d="M16 103H228.354V129.792H16V103Z" fill="white"/>
</mask>
<g mask="url(#mask0_21_103)">
<mask id="mask1_21_103" style="mask-type:luminance" maskUnits="userSpaceOnUse" x="15" y="103" width="214" height="27">
<path d="M228.419 103H15.8301V130H228.419V103Z" fill="white"/>
</mask>
<g mask="url(#mask1_21_103)">
<mask id="mask2_21_103" style="mask-type:luminance" maskUnits="userSpaceOnUse" x="16" y="103" width="22" height="27">
<path d="M16 103.411H37.3265V109.263H16V103.411ZM16 109.263H22.6385V113.501H16V109.263ZM16 113.501H37.3265V119.35H16V113.501ZM16 119.35H22.6385V129.435H16V119.35Z" fill="white"/>
</mask>
<g mask="url(#mask2_21_103)">
<mask id="mask3_21_103" style="mask-type:luminance" maskUnits="userSpaceOnUse" x="15" y="103" width="23" height="27">
<path d="M37.3608 103.209H15.8301V129.581H37.3608V103.209Z" fill="white"/>
</mask>
<g mask="url(#mask3_21_103)">
<mask id="mask4_21_103" style="mask-type:luminance" maskUnits="userSpaceOnUse" x="16" y="103" width="22" height="27">
<path d="M16 103.411H37.3265V109.263H16V103.411ZM16 109.263H22.6385V113.501H16V109.263ZM16 113.501H37.3265V119.35H16V113.501ZM16 119.35H22.6385V129.435H16V119.35Z" fill="white"/>
</mask>
<g mask="url(#mask4_21_103)">
<path d="M16 103.411H37.329V129.439H16V103.411Z" fill="#111111"/>
</g>
</g>
</g>
<mask id="mask5_21_103" style="mask-type:luminance" maskUnits="userSpaceOnUse" x="41" y="103" width="21" height="27">
<path d="M41.8535 103.413H48.5034V123.584H41.8535V103.413ZM41.8535 123.584H61.72V129.437H41.8535V123.584Z" fill="white"/>
</mask>
<g mask="url(#mask5_21_103)">
<mask id="mask6_21_103" style="mask-type:luminance" maskUnits="userSpaceOnUse" x="41" y="103" width="21" height="27">
<path d="M61.8179 103.209H41.7505V129.582H61.8179V103.209Z" fill="white"/>
</mask>
<g mask="url(#mask6_21_103)">
<mask id="mask7_21_103" style="mask-type:luminance" maskUnits="userSpaceOnUse" x="41" y="103" width="21" height="27">
<path d="M41.8535 103.413H48.5034V123.584H41.8535V103.413ZM41.8535 123.584H61.72V129.437H41.8535V123.584Z" fill="white"/>
</mask>
<g mask="url(#mask7_21_103)">
<path d="M307.099 93.1724H-62.6929V139.828H307.099V93.1724Z" fill="#111111"/>
</g>
</g>
</g>
<mask id="mask8_21_103" style="mask-type:luminance" maskUnits="userSpaceOnUse" x="61" y="103" width="29" height="27">
<path d="M61.4668 103H89.4106V129.792H61.4668V103Z" fill="white"/>
</mask>
<g mask="url(#mask8_21_103)">
<mask id="mask9_21_103" style="mask-type:luminance" maskUnits="userSpaceOnUse" x="61" y="103" width="29" height="27">
<path d="M75.4166 108.826C79.5043 108.826 82.8309 112.223 82.8309 116.397C82.8309 120.571 79.5043 123.968 75.4166 123.968C71.3298 123.968 68.0032 120.572 68.0032 116.397C68.0032 112.222 71.3274 108.826 75.4166 108.826ZM75.4354 103C67.7648 103 61.5231 109.022 61.5231 116.424C61.5231 123.818 67.7501 129.836 75.4085 129.85H75.4607C83.1191 129.837 89.3469 123.82 89.3469 116.424C89.3469 109.022 83.1069 103 75.4354 103Z" fill="white"/>
</mask>
<g mask="url(#mask9_21_103)">
<mask id="mask10_21_103" style="mask-type:luminance" maskUnits="userSpaceOnUse" x="61" y="103" width="29" height="27">
<path d="M89.4106 103H61.3998V130H89.4106V103Z" fill="white"/>
</mask>
<g mask="url(#mask10_21_103)">
<mask id="mask11_21_103" style="mask-type:luminance" maskUnits="userSpaceOnUse" x="61" y="103" width="29" height="27">
<path d="M61.5011 103H89.3796V129.792H61.5011V103Z" fill="white"/>
</mask>
<g mask="url(#mask11_21_103)">
<mask id="mask12_21_103" style="mask-type:luminance" maskUnits="userSpaceOnUse" x="61" y="103" width="29" height="27">
<path d="M75.4169 108.826C79.5045 108.826 82.8311 112.223 82.8311 116.397C82.8311 120.571 79.5045 123.968 75.4169 123.968C71.3301 123.968 68.0035 120.572 68.0035 116.397C68.0035 112.222 71.3276 108.826 75.4169 108.826ZM75.4357 103C67.765 103 61.5234 109.022 61.5234 116.424C61.5234 123.818 67.7503 129.836 75.4087 129.85H75.461C83.1193 129.837 89.3471 123.82 89.3471 116.424C89.3471 109.022 83.1071 103 75.4357 103Z" fill="white"/>
</mask>
<g mask="url(#mask12_21_103)">
<path d="M307.099 93.1719H-62.6929V139.828H307.099V93.1719Z" fill="#111111"/>
</g>
</g>
</g>
</g>
</g>
<mask id="mask13_21_103" style="mask-type:luminance" maskUnits="userSpaceOnUse" x="92" y="103" width="26" height="27">
<path d="M92.6245 103.405H117.839V129.514H92.6245V103.405Z" fill="white"/>
</mask>
<g mask="url(#mask13_21_103)">
<mask id="mask14_21_103" style="mask-type:luminance" maskUnits="userSpaceOnUse" x="92" y="103" width="26" height="27">
<path d="M108.945 103.413C108.777 103.407 108.63 103.405 108.63 103.405L92.6245 103.411V129.435H99.2622V119.352H103.348L110.664 129.437H117.814L110.552 119.452L110.857 119.371C114.304 118.432 116.844 115.284 116.844 111.534C116.844 107.236 113.508 103.768 109.293 103.434C109.293 103.434 109.156 103.42 108.947 103.413M108.177 113.5H99.2622V109.264H108.034C109.547 109.264 110.127 110.517 110.148 111.357C110.127 112.24 109.586 113.5 108.177 113.5Z" fill="white"/>
</mask>
<g mask="url(#mask14_21_103)">
<mask id="mask15_21_103" style="mask-type:luminance" maskUnits="userSpaceOnUse" x="92" y="103" width="26" height="27">
<path d="M117.839 103.209H92.5461V129.582H117.839V103.209Z" fill="white"/>
</mask>
<g mask="url(#mask15_21_103)">
<mask id="mask16_21_103" style="mask-type:luminance" maskUnits="userSpaceOnUse" x="92" y="103" width="26" height="27">
<path d="M92.6245 103.405H117.839V129.469H92.6245V103.405Z" fill="white"/>
</mask>
<g mask="url(#mask16_21_103)">
<mask id="mask17_21_103" style="mask-type:luminance" maskUnits="userSpaceOnUse" x="92" y="103" width="26" height="27">
<path d="M108.945 103.413C108.777 103.407 108.63 103.405 108.63 103.405L92.6245 103.411V129.435H99.2621V119.352H103.348L110.664 129.437H117.814L110.552 119.452L110.857 119.371C114.304 118.432 116.844 115.284 116.844 111.534C116.844 107.236 113.508 103.768 109.293 103.434C109.293 103.434 109.156 103.42 108.947 103.413M108.177 113.5H99.2621V109.264H108.034C109.547 109.264 110.127 110.517 110.147 111.357C110.127 112.24 109.586 113.5 108.177 113.5Z" fill="white"/>
</mask>
<g mask="url(#mask17_21_103)">
<path d="M92.6245 103.405H117.814V129.416H92.6245V103.405Z" fill="#111111"/>
</g>
</g>
</g>
</g>
</g>
<mask id="mask18_21_103" style="mask-type:luminance" maskUnits="userSpaceOnUse" x="120" y="103" width="23" height="27">
<path d="M120.895 103.412H142.363V109.263H120.895V103.412ZM120.895 109.263H127.671V113.501H120.895V109.263ZM120.895 113.501H142.363V119.35H120.895V113.501ZM120.895 119.35H127.671V123.584H120.895V119.35ZM120.895 123.584H142.363V129.436H120.895V123.584Z" fill="white"/>
</mask>
<g mask="url(#mask18_21_103)">
<mask id="mask19_21_103" style="mask-type:luminance" maskUnits="userSpaceOnUse" x="120" y="103" width="23" height="27">
<path d="M142.506 103.209H120.766V129.582H142.506V103.209Z" fill="white"/>
</mask>
<g mask="url(#mask19_21_103)">
<mask id="mask20_21_103" style="mask-type:luminance" maskUnits="userSpaceOnUse" x="120" y="103" width="23" height="27">
<path d="M120.895 103.412H142.363V109.263H120.895V103.412ZM120.895 109.263H127.671V113.501H120.895V109.263ZM120.895 113.501H142.363V119.35H120.895V113.501ZM120.895 119.35H127.671V123.584H120.895V119.35ZM120.895 123.584H142.363V129.436H120.895V123.584Z" fill="white"/>
</mask>
<g mask="url(#mask20_21_103)">
<path d="M120.895 103.412H142.363V129.442H120.895V103.412Z" fill="#111111"/>
</g>
</g>
</g>
<mask id="mask21_21_103" style="mask-type:luminance" maskUnits="userSpaceOnUse" x="147" y="103" width="28" height="27">
<path d="M147.242 103.412H174.248V129.436H147.242V103.412Z" fill="white"/>
</mask>
<g mask="url(#mask21_21_103)">
<mask id="mask22_21_103" style="mask-type:luminance" maskUnits="userSpaceOnUse" x="147" y="103" width="28" height="27">
<path d="M147.242 103.412V129.436H153.911V112.669L167.231 129.436H174.246V103.412H167.582V120.191L154.261 103.412H147.242Z" fill="white"/>
</mask>
<g mask="url(#mask22_21_103)">
<mask id="mask23_21_103" style="mask-type:luminance" maskUnits="userSpaceOnUse" x="147" y="103" width="28" height="27">
<path d="M174.279 103.209H147.104V129.582H174.279V103.209Z" fill="white"/>
</mask>
<g mask="url(#mask23_21_103)">
<mask id="mask24_21_103" style="mask-type:luminance" maskUnits="userSpaceOnUse" x="147" y="103" width="28" height="27">
<path d="M147.242 103.412H174.248V129.436H147.242V103.412Z" fill="white"/>
</mask>
<g mask="url(#mask24_21_103)">
<mask id="mask25_21_103" style="mask-type:luminance" maskUnits="userSpaceOnUse" x="147" y="103" width="28" height="27">
<path d="M147.242 103.412V129.436H153.911V112.669L167.231 129.436H174.246V103.412H167.582V120.191L154.261 103.412H147.242Z" fill="white"/>
</mask>
<g mask="url(#mask25_21_103)">
<path d="M147.242 103.412H174.248V129.436H147.242V103.412Z" fill="#111111"/>
</g>
</g>
</g>
</g>
</g>
<mask id="mask26_21_103" style="mask-type:luminance" maskUnits="userSpaceOnUse" x="177" y="103" width="27" height="27">
<path d="M177.846 103.006H203.285V129.792H177.846V103.006Z" fill="white"/>
</mask>
<g mask="url(#mask26_21_103)">
<mask id="mask27_21_103" style="mask-type:luminance" maskUnits="userSpaceOnUse" x="177" y="103" width="27" height="27">
<path d="M193.719 113.5H186.47C185.063 113.5 184.501 112.149 184.501 111.212C184.501 110.372 185.102 108.837 186.614 108.837H194.604C195.767 108.837 196.375 110.004 196.605 110.729H203.191C202.928 107.464 200.705 104.76 197.7 103.797C196.346 103.328 193.646 103.006 190.531 103.006C187.543 103.006 184.94 103.303 183.536 103.741C180.247 104.717 177.846 107.759 177.846 111.37C177.846 113.411 178.619 115.266 179.88 116.673C180.025 116.852 180.256 117.099 180.583 117.368C181.979 118.586 183.798 119.327 185.792 119.327C186.037 119.337 187.151 119.348 187.41 119.348H194.633C196.041 119.348 196.603 120.698 196.603 121.642C196.603 122.579 196.002 123.968 194.49 123.968H186.502C185.338 123.968 184.731 122.846 184.501 122.122H177.941C178.226 125.66 180.82 128.537 184.212 129.254C185.672 129.613 187.989 129.846 190.606 129.846C193.146 129.846 195.404 129.626 196.868 129.286C200.525 128.571 203.285 125.348 203.285 121.478C203.285 119.437 202.511 117.583 201.251 116.175C201.105 115.997 200.875 115.75 200.547 115.477C199.152 114.262 197.333 113.519 195.338 113.519" fill="white"/>
</mask>
<g mask="url(#mask27_21_103)">
<mask id="mask28_21_103" style="mask-type:luminance" maskUnits="userSpaceOnUse" x="177" y="103" width="27" height="27">
<path d="M203.335 103H177.833V130H203.335V103Z" fill="white"/>
</mask>
<g mask="url(#mask28_21_103)">
<mask id="mask29_21_103" style="mask-type:luminance" maskUnits="userSpaceOnUse" x="177" y="103" width="27" height="27">
<path d="M177.846 103.006H203.285V129.792H177.846V103.006Z" fill="white"/>
</mask>
<g mask="url(#mask29_21_103)">
<mask id="mask30_21_103" style="mask-type:luminance" maskUnits="userSpaceOnUse" x="177" y="103" width="27" height="27">
<path d="M193.719 113.5H186.47C185.062 113.5 184.501 112.149 184.501 111.212C184.501 110.372 185.102 108.837 186.614 108.837H194.604C195.767 108.837 196.375 110.004 196.605 110.729H203.191C202.928 107.464 200.705 104.76 197.7 103.797C196.346 103.328 193.646 103.006 190.531 103.006C187.543 103.006 184.94 103.303 183.536 103.741C180.247 104.717 177.846 107.759 177.846 111.37C177.846 113.411 178.619 115.266 179.88 116.673C180.025 116.852 180.255 117.099 180.583 117.368C181.979 118.586 183.798 119.327 185.792 119.327C186.037 119.337 187.151 119.348 187.41 119.348H194.633C196.041 119.348 196.603 120.698 196.603 121.642C196.603 122.579 196.002 123.968 194.489 123.968H186.502C185.338 123.968 184.731 122.846 184.501 122.122H177.941C178.225 125.66 180.82 128.537 184.212 129.254C185.672 129.613 187.989 129.846 190.606 129.846C193.146 129.846 195.404 129.626 196.868 129.286C200.524 128.571 203.284 125.348 203.284 121.478C203.284 119.437 202.511 117.583 201.25 116.175C201.105 115.997 200.875 115.75 200.547 115.477C199.152 114.262 197.333 113.519 195.338 113.519" fill="white"/>
</mask>
<g mask="url(#mask30_21_103)">
<path d="M177.846 103.006H203.285V129.871H177.846V103.006Z" fill="#111111"/>
</g>
</g>
</g>
</g>
</g>
<mask id="mask31_21_103" style="mask-type:luminance" maskUnits="userSpaceOnUse" x="206" y="103" width="23" height="27">
<path d="M206.886 103.411H228.354V109.263H206.886V103.411ZM206.886 109.263H213.663V113.501H206.886V109.263ZM206.886 113.501H228.354V119.35H206.886V113.501ZM206.886 119.35H213.663V123.583H206.886V119.35ZM206.886 123.583H228.354V129.435H206.886V123.583Z" fill="white"/>
</mask>
<g mask="url(#mask31_21_103)">
<mask id="mask32_21_103" style="mask-type:luminance" maskUnits="userSpaceOnUse" x="206" y="103" width="23" height="27">
<path d="M228.419 103.209H206.68V129.581H228.419V103.209Z" fill="white"/>
</mask>
<g mask="url(#mask32_21_103)">
<mask id="mask33_21_103" style="mask-type:luminance" maskUnits="userSpaceOnUse" x="206" y="103" width="23" height="27">
<path d="M206.886 103.411H228.354V109.263H206.886V103.411ZM206.886 109.263H213.663V113.501H206.886V109.263ZM206.886 113.501H228.354V119.35H206.886V113.501ZM206.886 119.35H213.663V123.583H206.886V119.35ZM206.886 123.583H228.354V129.435H206.886V123.583Z" fill="white"/>
</mask>
<g mask="url(#mask33_21_103)">
<path d="M206.886 103.411H228.354V129.441H206.886V103.411Z" fill="#111111"/>
</g>
</g>
</g>
</g>
</g>
</g>
<defs>
<clipPath id="clip0_21_103">
<rect width="243" height="243" fill="white" transform="translate(0.5)"/>
</clipPath>
</defs>
</svg>
