<svg width="66" height="65" viewBox="0 0 66 65" fill="none" xmlns="http://www.w3.org/2000/svg">
<path d="M49.6407 16H49.671M17.8999 2.5H48.1293C56.4769 2.5 63.2439 9.21573 63.2439 17.5V47.5C63.2439 55.7843 56.4769 62.5 48.1293 62.5H17.8999C9.55234 62.5 2.78528 55.7843 2.78528 47.5V17.5C2.78528 9.21573 9.55234 2.5 17.8999 2.5ZM45.1063 30.61C45.4794 33.1067 45.0497 35.6567 43.8783 37.897C42.7069 40.1374 40.8535 41.9542 38.5817 43.089C36.3099 44.2238 33.7354 44.6188 31.2244 44.2178C28.7134 43.8168 26.3937 42.6402 24.5953 40.8555C22.7968 39.0707 21.6113 36.7686 21.2072 34.2766C20.8032 31.7847 21.2012 29.2297 22.3446 26.9751C23.4881 24.7206 25.3188 22.8812 27.5763 21.7187C29.8338 20.5562 32.4032 20.1298 34.9191 20.5C37.4853 20.8777 39.8611 22.0644 41.6955 23.8849C43.53 25.7054 44.7258 28.0632 45.1063 30.61Z" stroke="#F8F8F8" stroke-width="3.75" stroke-linecap="round" stroke-linejoin="round"/>
</svg>
