<svg width="42" height="43" viewBox="0 0 42 43" fill="none" xmlns="http://www.w3.org/2000/svg">
<path d="M20.0621 1.53451C20.3843 0.663888 21.6157 0.663888 21.9379 1.53451L26.9175 14.9917C27.0188 15.2654 27.2346 15.4812 27.5083 15.5825L40.9655 20.5621C41.8361 20.8843 41.8361 22.1157 40.9655 22.4379L27.5083 27.4175C27.2346 27.5188 27.0188 27.7346 26.9175 28.0083L21.9379 41.4655C21.6157 42.3361 20.3843 42.3361 20.0621 41.4655L15.0825 28.0083C14.9812 27.7346 14.7654 27.5188 14.4917 27.4175L1.03451 22.4379C0.163888 22.1157 0.163888 20.8843 1.03451 20.5621L14.4917 15.5825C14.7654 15.4812 14.9812 15.2654 15.0825 14.9917L20.0621 1.53451Z" fill="#F8F8F8"/>
</svg>
